<svg width="266" height="110" viewBox="0 0 266 110" fill="none" xmlns="http://www.w3.org/2000/svg">
<path d="M183.004 22.528C183.165 22.5903 183.165 22.5903 183.329 22.6538C189.664 25.1524 194.653 29.3629 198.883 34.6063C199.372 34.1296 199.821 33.6314 200.257 33.105C203.102 29.7168 206.35 27.1354 210.143 24.8652C210.373 24.7268 210.6 24.5844 210.826 24.4412C212.695 23.2835 214.816 22.4307 216.932 21.8495C217.125 21.7859 217.317 21.7209 217.509 21.6544C218.943 21.1763 220.376 20.7575 221.86 20.4669C221.964 20.4459 222.068 20.4249 222.176 20.4033C224.635 19.9452 227.118 19.8949 229.613 19.8986C229.774 19.8985 229.935 19.8985 230.101 19.8984C232.546 19.9012 234.885 20.0213 237.289 20.4923C237.492 20.5272 237.695 20.5615 237.898 20.5952C239.132 20.8146 240.311 21.1802 241.496 21.578C241.587 21.6079 241.678 21.6378 241.772 21.6686C245.186 22.7894 248.411 24.4108 251.267 26.5993C251.349 26.6615 251.431 26.7236 251.516 26.7877C252.353 27.4237 253.179 28.058 253.904 28.8243C254.143 29.0692 254.398 29.2873 254.66 29.5086C255.119 29.9049 255.515 30.3268 255.906 30.7894C256.071 30.9829 256.242 31.1724 256.417 31.3577C257.945 32.9824 259.247 34.8479 260.36 36.7777C260.458 36.9427 260.555 37.1078 260.653 37.2728C261.481 38.6869 262.166 40.1543 262.802 41.6633C262.842 41.7563 262.881 41.8493 262.922 41.9451C263.547 43.448 263.944 45.0036 264.335 46.5812C264.431 46.9563 264.535 47.3283 264.641 47.7008C264.849 48.458 264.991 49.2181 265.118 49.9925C265.14 50.1173 265.162 50.242 265.184 50.3705C265.693 53.4327 265.691 56.4745 265.684 59.5677C265.683 60.2451 265.683 60.9226 265.683 61.6C265.683 62.7705 265.683 63.941 265.681 65.1115C265.679 66.8038 265.678 68.4961 265.678 70.1884C265.677 72.9347 265.675 75.6811 265.673 78.4275C265.67 81.0936 265.668 83.7597 265.667 86.4258C265.667 86.5921 265.667 86.7584 265.667 86.9298C265.667 88.2307 265.666 89.5316 265.665 90.8325C265.663 97.197 265.657 103.561 265.652 109.926C257.457 109.926 249.261 109.926 240.817 109.926C240.812 106.101 240.807 102.275 240.802 98.3343C240.798 95.9111 240.794 93.4879 240.789 91.0647C240.786 89.7915 240.784 88.5183 240.782 87.245C240.781 87.0854 240.781 86.9259 240.781 86.7615C240.776 84.19 240.773 81.6185 240.77 79.047C240.767 76.4053 240.762 73.7636 240.756 71.1219C240.753 69.4936 240.75 67.8654 240.75 66.2371C240.749 65.1184 240.747 63.9998 240.743 62.8812C240.741 62.2371 240.74 61.593 240.741 60.9489C240.744 55.2823 240.251 50.227 236.161 45.9212C233.05 42.9429 229.098 42.2299 224.947 42.3031C221.834 42.4012 218.864 43.5342 216.525 45.5989C216.411 45.6953 216.297 45.7917 216.179 45.891C214.451 47.3825 213.025 49.3837 212.318 51.5702C212.291 51.6538 212.263 51.7374 212.235 51.8235C212.142 52.1144 212.051 52.4061 211.962 52.6983C211.92 52.8332 211.92 52.8332 211.877 52.971C211.398 54.5983 211.328 56.2317 211.33 57.9145C211.33 58.1399 211.329 58.3654 211.328 58.5908C211.326 59.2058 211.325 59.8207 211.325 60.4356C211.325 61.1005 211.322 61.7653 211.321 62.4302C211.318 63.5805 211.316 64.7309 211.314 65.8813C211.312 67.5445 211.309 69.2078 211.305 70.871C211.299 73.5698 211.294 76.2686 211.29 78.9674C211.285 81.5883 211.281 84.2092 211.275 86.83C211.275 86.9934 211.275 87.1567 211.274 87.325C211.272 88.6024 211.269 89.8799 211.266 91.1573C211.253 97.4135 211.243 103.67 211.232 109.926C203.037 109.926 194.841 109.926 186.397 109.926C186.392 106.055 186.387 102.184 186.382 98.1965C186.378 95.7461 186.373 93.2957 186.369 90.8453C186.366 89.5579 186.364 88.2706 186.362 86.9833C186.361 86.7413 186.361 86.7413 186.361 86.4944C186.356 83.8927 186.352 81.291 186.35 78.6893C186.347 76.0176 186.342 73.3458 186.336 70.674C186.333 69.0266 186.33 67.3791 186.329 65.7317C186.329 64.6006 186.326 63.4696 186.323 62.3385C186.321 61.6868 186.32 61.0351 186.32 60.3834C186.321 59.7851 186.32 59.1868 186.317 58.5885C186.316 58.3737 186.316 58.1588 186.317 57.944C186.33 53.496 184.961 49.3739 181.798 46.1518C178.753 43.3695 175.101 42.2968 171.053 42.2824C170.792 42.2804 170.792 42.2804 170.526 42.2783C169.386 42.2887 168.361 42.4557 167.262 42.749C167.022 42.8031 166.781 42.8569 166.541 42.9101C165.064 43.3209 163.595 44.1362 162.376 45.056C162.258 45.1449 162.14 45.2338 162.019 45.3253C158.991 47.704 157.146 51.2429 156.591 55.0381C156.4 56.8188 156.463 58.6331 156.466 60.4217C156.467 61.0875 156.464 61.7533 156.462 62.4192C156.459 63.5698 156.458 64.7205 156.458 65.8712C156.458 67.5348 156.456 69.1984 156.452 70.862C156.447 73.5618 156.443 76.2616 156.442 78.9613C156.44 81.5823 156.437 84.2033 156.433 86.8242C156.433 86.9877 156.433 87.1512 156.432 87.3196C156.43 88.5984 156.428 89.8772 156.426 91.1559C156.415 97.4126 156.411 103.669 156.405 109.926C148.254 109.926 140.103 109.926 131.706 109.926C131.695 96.1226 131.695 96.1226 131.692 90.3478C131.692 89.0261 131.691 87.7044 131.691 86.3827C131.691 86.2171 131.691 86.0515 131.69 85.8808C131.689 83.2116 131.687 80.5424 131.685 77.8732C131.682 75.131 131.681 72.3888 131.68 69.6467C131.68 67.9565 131.679 66.2663 131.676 64.5762C131.675 63.415 131.674 62.2538 131.675 61.0926C131.675 60.4241 131.675 59.7555 131.673 59.087C131.659 52.4476 131.659 52.4476 132.291 49.5854C132.335 49.3756 132.335 49.3756 132.381 49.1615C132.47 48.7425 132.563 48.3242 132.656 47.906C132.696 47.7164 132.696 47.7164 132.738 47.523C133.121 45.7427 133.645 44.0462 134.284 42.3418C134.331 42.2115 134.379 42.0812 134.427 41.9469C134.799 40.9616 135.288 40.0274 135.769 39.092C135.862 38.9114 135.955 38.7306 136.046 38.5495C136.724 37.2134 137.499 35.9705 138.355 34.742C138.445 34.6124 138.534 34.4827 138.626 34.3492C139.317 33.3701 140.088 32.4669 140.878 31.5676C141.045 31.3774 141.21 31.1856 141.374 30.9935C145.672 26.0554 151.654 22.7764 157.898 21.0352C158.015 21.0011 158.132 20.967 158.252 20.9319C166.197 18.6652 175.377 19.5645 183.004 22.528Z" fill="#1E2939"/>
<path d="M76.3356 0C84.4864 0 92.6372 0 101.035 0C101.035 7.5686 101.035 15.1372 101.035 22.9352C106.902 22.9352 112.769 22.9352 118.813 22.9352C118.813 29.4737 118.813 36.0123 118.813 42.749C112.991 42.749 107.169 42.749 101.171 42.749C101.176 47.9079 101.183 53.0668 101.195 58.2257C101.196 58.8352 101.198 59.4447 101.199 60.0541C101.199 60.1755 101.199 60.2968 101.2 60.4218C101.204 62.3847 101.206 64.3476 101.208 66.3106C101.209 68.3257 101.213 70.3408 101.219 72.3558C101.222 73.5986 101.224 74.8414 101.224 76.0842C101.224 76.9371 101.226 77.7901 101.229 78.643C101.231 79.1347 101.232 79.6263 101.231 80.118C101.23 80.6523 101.233 81.1865 101.236 81.7208C101.235 81.8745 101.234 82.0282 101.233 82.1865C101.253 84.0577 101.911 85.5353 103.181 86.889C104.437 88.0925 105.762 88.3876 107.449 88.3912C107.602 88.3925 107.756 88.3939 107.914 88.3953C108.408 88.3995 108.903 88.4018 109.398 88.4041C109.704 88.4064 110.01 88.4088 110.316 88.4113C111.449 88.4199 112.582 88.4262 113.716 88.4327C116.249 88.4495 118.782 88.4663 121.392 88.4836C121.392 95.5596 121.392 102.636 121.392 109.926C115.498 109.953 115.498 109.953 113.004 109.959C111.29 109.963 109.577 109.968 107.863 109.977C106.614 109.984 105.366 109.988 104.117 109.99C103.458 109.991 102.799 109.993 102.139 109.998C97.0984 110.034 92.0784 109.656 87.5996 107.076C87.4866 107.014 87.3736 106.953 87.2572 106.889C85.898 106.117 84.5142 105.167 83.4472 104.019C83.2323 103.785 83.2323 103.785 82.8497 103.488C78.8077 100.036 76.8673 94.2777 76.4224 89.1543C76.2799 87.317 76.2991 85.4751 76.3041 83.6336C76.3053 83.0829 76.3049 82.5323 76.3047 81.9816C76.3045 81.0313 76.3054 80.0811 76.3069 79.1308C76.3091 77.757 76.3098 76.3831 76.3102 75.0092C76.3107 72.7793 76.3125 70.5494 76.3151 68.3195C76.3176 66.1555 76.3195 63.9915 76.3207 61.8275C76.3208 61.6938 76.3208 61.56 76.3209 61.4222C76.3213 60.751 76.3216 60.0799 76.3219 59.4087C76.3247 53.8555 76.3297 48.3022 76.3356 42.749C71.6332 42.749 66.9308 42.749 62.0859 42.749C62.0859 36.2104 62.0859 29.6719 62.0859 22.9352C66.7883 22.9352 71.4907 22.9352 76.3356 22.9352C76.3356 15.3666 76.3356 7.79796 76.3356 0Z" fill="#1E2939"/>
<path d="M38.3675 20.6002C38.8783 20.6026 39.3891 20.6029 39.8999 20.6029C42.5345 20.6066 45.1624 20.6675 47.785 20.9334C47.9532 20.9503 48.1215 20.9672 48.2949 20.9845C52.3876 21.4216 52.3876 21.4216 54.0786 21.9852C54.0786 28.9716 54.0786 35.958 54.0786 43.1561C53.3116 43.1561 52.8015 43.14 52.0853 42.9865C51.7811 42.928 51.4765 42.8713 51.1719 42.8147C50.9321 42.7697 50.6925 42.7236 50.4531 42.6764C48.0594 42.2198 45.6947 42.1479 43.2641 42.1383C43.1139 42.1369 42.9637 42.1355 42.809 42.1341C39.6319 42.1106 36.5798 42.4703 33.5862 43.5632C33.3847 43.6323 33.3847 43.6323 33.1791 43.7027C31.6802 44.2484 30.4344 45.2396 29.2435 46.2775C29.1138 46.3898 29.1138 46.3898 28.9816 46.5044C27.6112 47.78 26.6195 49.557 25.9864 51.2988C25.94 51.4239 25.8937 51.5489 25.8459 51.6778C25.3771 53.0558 25.2145 54.4739 25.0364 55.913C25.0135 56.0553 24.9907 56.1977 24.9671 56.3444C24.8526 57.2706 24.8798 58.2067 24.8792 59.1385C24.8786 59.3578 24.8779 59.577 24.8772 59.7963C24.8754 60.3973 24.8743 60.9983 24.8735 61.5993C24.8724 62.248 24.8705 62.8966 24.8688 63.5453C24.8658 64.6686 24.8633 65.792 24.8612 66.9154C24.8581 68.5395 24.8543 70.1637 24.8503 71.7879C24.8438 74.4231 24.838 77.0583 24.8325 79.6935C24.8271 82.2532 24.8215 84.8129 24.8155 87.3726C24.8151 87.532 24.8148 87.6914 24.8144 87.8557C24.8115 89.1025 24.8085 90.3492 24.8056 91.596C24.7912 97.706 24.7782 103.816 24.765 109.926C16.6142 109.926 8.46338 109.926 0.0655763 109.926C0.0436826 96.3586 0.0436826 96.3586 0.0390702 90.6685C0.0380076 89.3664 0.0369109 88.0643 0.035757 86.7621C0.0356138 86.599 0.0354696 86.4358 0.0353221 86.2677C0.0329694 83.643 0.0286936 81.0183 0.0236926 78.3936C0.0185929 75.6944 0.0155993 72.9952 0.0145024 70.2959C0.0137624 68.6341 0.011434 66.9723 0.00699375 65.3105C0.00409548 64.1666 0.00326353 63.0227 0.00396211 61.8788C0.00430539 61.2216 0.00383132 60.5644 0.000868359 59.9072C-0.0187714 55.3139 0.289455 50.8233 1.4651 46.3623C1.50637 46.2048 1.54765 46.0473 1.59017 45.885C1.934 44.5935 2.32076 43.3255 2.7798 42.0704C2.8405 41.902 2.90121 41.7335 2.96375 41.5599C4.29488 38.0513 6.43888 34.2951 9.19373 31.7113C9.43609 31.4788 9.64722 31.2339 9.86222 30.9761C11.9243 28.6042 14.5962 26.9226 17.3009 25.378C17.3972 25.322 17.4934 25.2661 17.5926 25.2084C20.1189 23.7487 22.9014 22.8499 25.715 22.1209C25.8861 22.0758 25.8861 22.0758 26.0607 22.0299C27.4469 21.6684 28.8392 21.3779 30.2528 21.1455C30.3785 21.1245 30.5043 21.1035 30.6338 21.0818C33.2068 20.6803 35.7668 20.5871 38.3675 20.6002Z" fill="#1E2939"/>
</svg>
