<svg width="91" height="28" viewBox="0 0 91 28" fill="none" xmlns="http://www.w3.org/2000/svg">
  <rect width="28" height="28" rx="6" fill="#030712"/>
  <path d="M8.52 8.286h10M6.857 14.119h8.334m-1.671 5.832h6.666" stroke="#fff" stroke-width="3" stroke-linecap="round" stroke-linejoin="round"/>
  <g clip-path="url(#a)" fill="#000">
    <path d="m73.215 6.71.07.027c1.357.522 2.426 1.403 3.333 2.499.105-.1.2-.204.294-.314.61-.708 1.306-1.248 2.119-1.723l.146-.089c.4-.242.855-.42 1.308-.541l.124-.041a8 8 0 0 1 1-.262c.527-.096 1.06-.106 1.594-.105h.104c.524 0 1.025.025 1.54.124l.131.021c.265.046.517.123.771.206l.06.019a6.9 6.9 0 0 1 2.087 1.07c.18.133.357.266.512.426q.077.075.162.143c.098.083.183.171.267.268q.053.06.11.119c.327.34.606.73.844 1.133l.063.103c.178.296.324.603.46.918l.026.06c.134.314.22.639.303.969q.03.117.066.234c.044.158.075.317.102.479l.014.079c.11.64.109 1.276.107 1.923v1.159l-.001 1.062-.001 1.723-.001 1.672v.921l-.004 3.992h-5.321l-.008-4.742v-.101l-.005-3.27-.002-1.021-.002-1.106c0-1.185-.105-2.242-.981-3.142-.667-.623-1.514-.772-2.403-.757a2.9 2.9 0 0 0-1.805.69l-.074.06c-.37.312-.676.73-.827 1.188l-.018.053-.059.183-.018.057c-.103.34-.118.681-.117 1.033v.142l-.001.386-.001.417-.003 1.765-.004 1.692-.003 1.644v.104l-.002.801-.007 3.925h-5.322l-.003-2.453-.003-1.537-.001-.808v-.102l-.003-1.632-.004-2.71-.002-.709-.001-.918c.003-.93-.29-1.792-.968-2.466-.653-.582-1.435-.806-2.303-.81h-.113a2.8 2.8 0 0 0-.7.098l-.154.034a2.8 2.8 0 0 0-.892.449l-.077.056c-.649.498-1.044 1.237-1.163 2.031-.04.372-.027.752-.027 1.126v.417l-.001.722-.002 1.044a1062 1062 0 0 0-.004 3.337v.104l-.001.802-.005 3.925h-5.292l-.003-4.094v-.934l-.002-1.674v-1.72l-.002-1.06v-1.148c-.003-1.389-.003-1.389.132-1.987l.02-.089q.027-.131.058-.262l.018-.08a7.5 7.5 0 0 1 .331-1.084l.03-.082c.08-.206.185-.402.288-.597l.06-.114c.145-.279.311-.539.494-.796l.059-.082a7 7 0 0 1 .482-.582l.106-.12c.921-1.032 2.203-1.718 3.541-2.082l.076-.021c1.703-.474 3.67-.286 5.304.333M50.358 2h5.293v4.796h3.81v4.142h-3.78q0 1.62.004 3.236l.001.383v.077l.004 2.495.003 1.314v.309l.001.335v.097c.004.392.145.7.417.984.269.251.553.313.914.314l.418.003.197.001.728.005 1.645.01v4.483c-1.263.006-1.263.006-1.797.007a405 405 0 0 0-1.905.007l-.423.002c-1.08.007-2.156-.072-3.116-.611l-.073-.04a3.4 3.4 0 0 1-.817-.6c-.046-.048-.046-.048-.128-.11-.866-.722-1.282-1.926-1.377-2.998-.03-.384-.027-.769-.026-1.154v-.345l.002-1.458.002-2.756v-.506l.003-3.484h-3.053V6.796h3.053zm-8.136 4.307h.328c.565.002 1.128.014 1.69.07l.109.01c.877.092.877.092 1.24.21v4.427a2 2 0 0 1-.428-.036l-.35-.065c-.513-.095-1.02-.11-1.54-.112l-.098-.001c-.68-.005-1.334.07-1.976.299l-.087.029c-.321.114-.588.321-.843.538l-.057.048c-.293.266-.506.638-.642 1.002l-.03.08c-.1.288-.135.584-.173.885l-.015.09c-.024.194-.019.39-.019.584v.138l-.001.377-.001.407-.002.704-.002 1.02-.004 1.652-.003 1.606v.1l-.002.783-.01 3.832h-5.292l-.006-4.026v-.92l-.005-3.34-.002-1.76v-.412c-.005-.96.061-1.9.313-2.832l.027-.1a9 9 0 0 1 .294-.904c.285-.734.745-1.52 1.335-2.06q.076-.073.143-.153c.442-.496 1.015-.848 1.594-1.17l.063-.036c.541-.305 1.137-.493 1.74-.646l.074-.019a10 10 0 0 1 .98-.198 10.6 10.6 0 0 1 1.658-.1"/>
  </g>
  <defs>
    <clipPath id="a">
      <path fill="#fff" d="M34 2h57v23H34z"/>
    </clipPath>
  </defs>
</svg>